<svg width="18" height="18" viewBox="0 0 18 18" fill="none" xmlns="http://www.w3.org/2000/svg">
<g id="face-happy" clip-path="url(#clip0_2646_13509)">
<path id="Icon" d="M11.25 6.75H11.2575M6.75 6.75H6.7575M16.5 9C16.5 13.1421 13.1421 16.5 9 16.5C4.85786 16.5 1.5 13.1421 1.5 9C1.5 4.85786 4.85786 1.5 9 1.5C13.1421 1.5 16.5 4.85786 16.5 9ZM11.625 6.75C11.625 6.95711 11.4571 7.125 11.25 7.125C11.0429 7.125 10.875 6.95711 10.875 6.75C10.875 6.54289 11.0429 6.375 11.25 6.375C11.4571 6.375 11.625 6.54289 11.625 6.75ZM7.125 6.75C7.125 6.95711 6.95711 7.125 6.75 7.125C6.54289 7.125 6.375 6.95711 6.375 6.75C6.375 6.54289 6.54289 6.375 6.75 6.375C6.95711 6.375 7.125 6.54289 7.125 6.75ZM9 13.125C10.8754 13.125 12.375 11.7503 12.375 10.5H5.625C5.625 11.7503 7.12462 13.125 9 13.125Z" stroke="#475467" stroke-width="1.5" stroke-linecap="round" stroke-linejoin="round"/>
</g>
<defs>
<clipPath id="clip0_2646_13509">
<rect width="18" height="18" fill="white"/>
</clipPath>
</defs>
</svg>
