<svg width="20" height="25" viewBox="0 0 20 25" fill="none" xmlns="http://www.w3.org/2000/svg">
<g clip-path="url(#clip0_253_32148)">
<path d="M18.9144 8.6816C18.7752 8.7896 16.3176 10.1744 16.3176 13.2536C16.3176 16.8152 19.4448 18.0752 19.5384 18.1064C19.524 18.1832 19.0416 19.832 17.8896 21.512C16.8624 22.9904 15.7896 24.4664 14.1576 24.4664C12.5256 24.4664 12.1056 23.5184 10.2216 23.5184C8.3856 23.5184 7.7328 24.4976 6.24 24.4976C4.7472 24.4976 3.7056 23.1296 2.508 21.4496C1.1208 19.4768 0 16.412 0 13.5032C0 8.8376 3.0336 6.3632 6.0192 6.3632C7.6056 6.3632 8.928 7.4048 9.924 7.4048C10.872 7.4048 12.3504 6.3008 14.1552 6.3008C14.8392 6.3008 17.2968 6.3632 18.9144 8.6816ZM13.2984 4.3256C14.0448 3.44 14.5728 2.2112 14.5728 0.9824C14.5728 0.812 14.5584 0.6392 14.5272 0.5C13.3128 0.5456 11.868 1.3088 10.9968 2.3192C10.3128 3.0968 9.6744 4.3256 9.6744 5.5712C9.6744 5.7584 9.7056 5.9456 9.72 6.0056C9.7968 6.02 9.9216 6.0368 10.0464 6.0368C11.136 6.0368 12.5064 5.3072 13.2984 4.3256Z" fill="black"/>
</g>
<defs>
<clipPath id="clip0_253_32148">
<rect width="19.536" height="24" fill="white" transform="translate(0 0.5)"/>
</clipPath>
</defs>
</svg>
