<svg width="16" height="16" viewBox="0 0 16 16" fill="none" xmlns="http://www.w3.org/2000/svg">
<path d="M6.87513 9.12513L14.7501 1.25013M6.97082 9.37118L8.9419 14.4397C9.11554 14.8862 9.20236 15.1094 9.32747 15.1746C9.43591 15.2311 9.5651 15.2312 9.67362 15.1748C9.7988 15.1098 9.88588 14.8866 10.06 14.4403L15.0028 1.77453C15.16 1.37164 15.2386 1.1702 15.1956 1.04148C15.1583 0.929693 15.0706 0.841966 14.9588 0.804622C14.8301 0.76162 14.6286 0.840232 14.2257 0.997455L1.55992 5.94021C1.11362 6.11438 0.890463 6.20146 0.825431 6.32664C0.769055 6.43516 0.769131 6.56434 0.825635 6.67279C0.890814 6.7979 1.11407 6.88472 1.56058 7.05836L6.62908 9.02944C6.71972 9.06469 6.76504 9.08231 6.8032 9.10953C6.83702 9.13366 6.8666 9.16324 6.89072 9.19706C6.91794 9.23522 6.93557 9.28054 6.97082 9.37118Z" stroke="#475467" stroke-width="1.5" stroke-linecap="round" stroke-linejoin="round"/>
</svg>
