<svg width="13" height="13" viewBox="0 0 13 13" fill="none" xmlns="http://www.w3.org/2000/svg">
<path d="M8.1251 8.12503V4.87503M8.1251 4.87503H4.8751M8.1251 4.87503L4.8751 8.12497M4.225 11.375H8.775C9.68509 11.375 10.1401 11.375 10.4877 11.1979C10.7935 11.0421 11.0421 10.7935 11.1979 10.4877C11.375 10.1401 11.375 9.68509 11.375 8.775V4.225C11.375 3.31491 11.375 2.85987 11.1979 2.51227C11.0421 2.2065 10.7935 1.95791 10.4877 1.80211C10.1401 1.625 9.68509 1.625 8.775 1.625H4.225C3.31491 1.625 2.85987 1.625 2.51227 1.80211C2.2065 1.95791 1.95791 2.2065 1.80211 2.51227C1.625 2.85987 1.625 3.31491 1.625 4.225V8.775C1.625 9.68509 1.625 10.1401 1.80211 10.4877C1.95791 10.7935 2.2065 11.0421 2.51227 11.1979C2.85987 11.375 3.31491 11.375 4.225 11.375Z" stroke="#D6FFD8" stroke-width="1.08333" stroke-linecap="round" stroke-linejoin="round"/>
</svg>
