<svg width="22" height="22" viewBox="0 0 22 22" fill="none" xmlns="http://www.w3.org/2000/svg">
<path d="M1 7.67785C1 6.1857 2.20963 4.97607 3.70178 4.97607C4.47706 4.97607 5.16537 4.47997 5.41053 3.74447L5.5 3.47607C5.54219 3.3495 5.56329 3.28622 5.58586 3.23008C5.87405 2.5132 6.54939 2.02644 7.32061 1.97973C7.38101 1.97607 7.44772 1.97607 7.58114 1.97607H14.4189C14.5523 1.97607 14.619 1.97607 14.6794 1.97973C15.4506 2.02644 16.126 2.5132 16.4141 3.23008C16.4367 3.28622 16.4578 3.3495 16.5 3.47607L16.5895 3.74447C16.8346 4.47997 17.5229 4.97607 18.2982 4.97607C19.7904 4.97607 21 6.1857 21 7.67785V16.1761C21 17.8562 21 18.6963 20.673 19.338C20.3854 19.9025 19.9265 20.3615 19.362 20.6491C18.7202 20.9761 17.8802 20.9761 16.2 20.9761H5.8C4.11984 20.9761 3.27976 20.9761 2.63803 20.6491C2.07354 20.3615 1.6146 19.9025 1.32698 19.338C1 18.6963 1 17.8562 1 16.1761V7.67785Z" stroke="#475467" stroke-width="2" stroke-linecap="round" stroke-linejoin="round"/>
<path d="M11 16.4761C13.4853 16.4761 15.5 14.4614 15.5 11.9761C15.5 9.49079 13.4853 7.47607 11 7.47607C8.51472 7.47607 6.5 9.49079 6.5 11.9761C6.5 14.4614 8.51472 16.4761 11 16.4761Z" stroke="#475467" stroke-width="2" stroke-linecap="round" stroke-linejoin="round"/>
</svg>
