<svg width="30" height="26" viewBox="0 0 30 26" fill="none" xmlns="http://www.w3.org/2000/svg">
<path d="M14.9992 10.25V15.25M14.9992 20.25H15.0117M13.2684 3.8647L2.98725 21.623C2.41699 22.608 2.13186 23.1005 2.174 23.5047C2.21076 23.8572 2.39547 24.1776 2.68217 24.3861C3.01087 24.625 3.57994 24.625 4.7181 24.625H25.2803C26.4185 24.625 26.9875 24.625 27.3162 24.3861C27.6029 24.1776 27.7877 23.8572 27.8244 23.5047C27.8665 23.1005 27.5814 22.608 27.0112 21.623L16.7301 3.86469C16.1618 2.88324 15.8777 2.39251 15.5071 2.2277C15.1838 2.08393 14.8147 2.08393 14.4913 2.2277C14.1207 2.39251 13.8366 2.88324 13.2684 3.8647Z" stroke="#DE3730" stroke-width="2.5" stroke-linecap="round" stroke-linejoin="round"/>
</svg>
