<svg width="30" height="30" viewBox="0 0 30 30" fill="none" xmlns="http://www.w3.org/2000/svg">
<path d="M14.9992 11.25V16.25M14.9992 21.25H15.0117M13.2684 4.8647L2.98725 22.623C2.41699 23.608 2.13186 24.1005 2.174 24.5047C2.21076 24.8572 2.39547 25.1776 2.68217 25.3861C3.01087 25.625 3.57994 25.625 4.7181 25.625H25.2803C26.4185 25.625 26.9875 25.625 27.3162 25.3861C27.6029 25.1776 27.7877 24.8572 27.8244 24.5047C27.8665 24.1005 27.5814 23.608 27.0112 22.623L16.7301 4.86469C16.1618 3.88324 15.8777 3.39251 15.5071 3.2277C15.1838 3.08393 14.8147 3.08393 14.4913 3.2277C14.1207 3.39251 13.8366 3.88324 13.2684 4.8647Z" stroke="#DE3730" stroke-width="2.5" stroke-linecap="round" stroke-linejoin="round"/>
</svg>
