<svg width="15" height="4" viewBox="0 0 15 4" fill="none" xmlns="http://www.w3.org/2000/svg">
<path d="M7.875 2.75C8.28921 2.75 8.625 2.41421 8.625 2C8.625 1.58579 8.28921 1.25 7.875 1.25C7.46079 1.25 7.125 1.58579 7.125 2C7.125 2.41421 7.46079 2.75 7.875 2.75Z" stroke="#475467" stroke-width="2" stroke-linecap="round" stroke-linejoin="round"/>
<path d="M13.125 2.75C13.5392 2.75 13.875 2.41421 13.875 2C13.875 1.58579 13.5392 1.25 13.125 1.25C12.7108 1.25 12.375 1.58579 12.375 2C12.375 2.41421 12.7108 2.75 13.125 2.75Z" stroke="#475467" stroke-width="2" stroke-linecap="round" stroke-linejoin="round"/>
<path d="M2.625 2.75C3.03921 2.75 3.375 2.41421 3.375 2C3.375 1.58579 3.03921 1.25 2.625 1.25C2.21079 1.25 1.875 1.58579 1.875 2C1.875 2.41421 2.21079 2.75 2.625 2.75Z" stroke="#475467" stroke-width="2" stroke-linecap="round" stroke-linejoin="round"/>
</svg>
