<svg width="23" height="22" viewBox="0 0 23 22" fill="none" xmlns="http://www.w3.org/2000/svg">
<path d="M5.59436 10.2288C5.53221 9.82823 5.49996 9.41786 5.49996 9C5.49996 4.58172 9.10525 1 13.5526 1C17.9999 1 21.6052 4.58172 21.6052 9C21.6052 9.99807 21.4213 10.9535 21.0852 11.8345C21.0154 12.0175 20.9804 12.109 20.9646 12.1804C20.9489 12.2512 20.9428 12.301 20.9411 12.3735C20.9394 12.4466 20.9493 12.5272 20.9692 12.6883L21.3717 15.9585C21.4153 16.3125 21.4371 16.4895 21.3782 16.6182C21.3266 16.731 21.235 16.8205 21.1211 16.8695C20.9911 16.9254 20.8146 16.8995 20.4617 16.8478L17.2765 16.3809C17.1101 16.3565 17.027 16.3443 16.9512 16.3448C16.8763 16.3452 16.8245 16.3507 16.7511 16.3661C16.677 16.3817 16.5823 16.4172 16.393 16.4881C15.5097 16.819 14.5524 17 13.5526 17C13.1344 17 12.7237 16.9683 12.3227 16.9073M7.13158 21C10.0965 21 12.5 18.5376 12.5 15.5C12.5 12.4624 10.0965 10 7.13158 10C4.16668 10 1.76316 12.4624 1.76316 15.5C1.76316 16.1106 1.86028 16.6979 2.03955 17.2467C2.11533 17.4787 2.15322 17.5947 2.16566 17.6739C2.17864 17.7567 2.18091 17.8031 2.17608 17.8867C2.17145 17.9668 2.15141 18.0573 2.11134 18.2383L1.5 21L4.4948 20.591C4.65827 20.5687 4.74 20.5575 4.81137 20.558C4.88652 20.5585 4.92641 20.5626 5.00011 20.5773C5.0701 20.5912 5.17416 20.6279 5.38227 20.7014C5.93059 20.8949 6.51911 21 7.13158 21Z" stroke="#667085" stroke-width="2" stroke-linecap="round" stroke-linejoin="round"/>
</svg>
