<svg width="24" height="25" viewBox="0 0 24 25" fill="none" xmlns="http://www.w3.org/2000/svg">
<g clip-path="url(#clip0_253_32139)">
<path d="M12 10.3181V14.9654H18.4582C18.1746 16.46 17.3236 17.7255 16.0472 18.5764L19.9418 21.5982C22.2109 19.5038 23.52 16.4273 23.52 12.7728C23.52 11.9219 23.4437 11.1036 23.3018 10.3182L12 10.3181Z" fill="#4285F4"/>
<path d="M5.27464 14.7842L4.39627 15.4566L1.28711 17.8784C3.26166 21.7947 7.30866 24.5002 11.9996 24.5002C15.2395 24.5002 17.9558 23.4311 19.9413 21.5984L16.0468 18.5766C14.9777 19.2966 13.614 19.733 11.9996 19.733C8.87955 19.733 6.22871 17.6275 5.27954 14.7911L5.27464 14.7842Z" fill="#34A853"/>
<path d="M1.28719 7.12183C0.469045 8.73631 0 10.5582 0 12.5C0 14.4418 0.469045 16.2636 1.28719 17.8781C1.28719 17.8889 5.28 14.7799 5.28 14.7799C5.04 14.0599 4.89815 13.2963 4.89815 12.4998C4.89815 11.7034 5.04 10.9398 5.28 10.2198L1.28719 7.12183Z" fill="#FBBC05"/>
<path d="M11.9998 5.27821C13.7671 5.27821 15.338 5.8891 16.5926 7.06731L20.0289 3.63097C17.9452 1.68917 15.2399 0.5 11.9998 0.5C7.3089 0.5 3.26166 3.19456 1.28711 7.12186L5.2798 10.2201C6.22884 7.38366 8.8798 5.27821 11.9998 5.27821Z" fill="#EA4335"/>
</g>
<defs>
<clipPath id="clip0_253_32139">
<rect width="23.52" height="24" fill="white" transform="translate(0 0.5)"/>
</clipPath>
</defs>
</svg>
