<svg width="21" height="21" viewBox="0 0 21 21" fill="none" xmlns="http://www.w3.org/2000/svg">
<path d="M1.16699 9.56505C1.16699 8.9907 1.16699 8.70352 1.24102 8.43905C1.30659 8.20478 1.41436 7.98444 1.55902 7.78886C1.72233 7.56806 1.94901 7.39175 2.40238 7.03912L9.18469 1.764C9.53601 1.49075 9.71168 1.35412 9.90565 1.3016C10.0768 1.25526 10.2572 1.25526 10.4283 1.3016C10.6223 1.35412 10.798 1.49075 11.1493 1.764L17.9316 7.03913C18.385 7.39175 18.6117 7.56806 18.775 7.78886C18.9196 7.98444 19.0274 8.20478 19.093 8.43905C19.167 8.70352 19.167 8.9907 19.167 9.56505V16.8C19.167 17.9201 19.167 18.4801 18.949 18.908C18.7573 19.2843 18.4513 19.5903 18.075 19.782C17.6472 20 17.0871 20 15.967 20H4.36699C3.24689 20 2.68683 20 2.25901 19.782C1.88269 19.5903 1.57673 19.2843 1.38498 18.908C1.16699 18.4801 1.16699 17.9201 1.16699 16.8V9.56505Z" stroke="white" stroke-width="2" stroke-linecap="round" stroke-linejoin="round"/>
</svg>
