<svg width="16" height="16" viewBox="0 0 16 16" fill="none" xmlns="http://www.w3.org/2000/svg">
<path d="M10.375 14.75V10.7C10.375 10.28 10.375 10.0699 10.2933 9.90951C10.2213 9.76839 10.1066 9.65365 9.96549 9.58175C9.80506 9.5 9.59504 9.5 9.175 9.5H7.075C6.65496 9.5 6.44494 9.5 6.28451 9.58175C6.14339 9.65365 6.02865 9.76839 5.95675 9.90951C5.875 10.0699 5.875 10.28 5.875 10.7V14.75M13.375 14.75V3.65C13.375 2.80992 13.375 2.38988 13.2115 2.06901C13.0677 1.78677 12.8382 1.5573 12.556 1.41349C12.2351 1.25 11.8151 1.25 10.975 1.25H5.275C4.43492 1.25 4.01488 1.25 3.69401 1.41349C3.41177 1.5573 3.1823 1.78677 3.03849 2.06901C2.875 2.38988 2.875 2.80992 2.875 3.65V14.75M14.875 14.75H1.375M6.25 5H6.2575M10 5H10.0075M6.625 5C6.625 5.20711 6.45711 5.375 6.25 5.375C6.04289 5.375 5.875 5.20711 5.875 5C5.875 4.79289 6.04289 4.625 6.25 4.625C6.45711 4.625 6.625 4.79289 6.625 5ZM10.375 5C10.375 5.20711 10.2071 5.375 10 5.375C9.79289 5.375 9.625 5.20711 9.625 5C9.625 4.79289 9.79289 4.625 10 4.625C10.2071 4.625 10.375 4.79289 10.375 5Z" stroke="#475467" stroke-width="1.5" stroke-linecap="round" stroke-linejoin="round"/>
</svg>
