<svg width="18" height="15" viewBox="0 0 18 15" fill="none" xmlns="http://www.w3.org/2000/svg">
<path d="M9.68478 11.25H15.0652M9.68478 11.25L8.25 14.25M9.68478 11.25L11.8337 6.75677C12.0069 6.3947 12.0935 6.21367 12.2119 6.15646C12.315 6.10671 12.435 6.10671 12.5381 6.15646C12.6565 6.21367 12.7431 6.3947 12.9163 6.75677L15.0652 11.25M15.0652 11.25L16.5 14.25M1.5 2.25H6M6 2.25H8.625M6 2.25V0.75M8.625 2.25H10.5M8.625 2.25C8.2529 4.46796 7.38944 6.47714 6.12416 8.16332M7.5 9C7.04061 8.79361 6.57199 8.50656 6.12416 8.16332M6.12416 8.16332C5.10977 7.38582 4.20207 6.31998 3.75 5.25M6.12416 8.16332C4.92064 9.7672 3.35358 11.0789 1.5 12" stroke="#475467" stroke-width="1.5" stroke-linecap="round" stroke-linejoin="round"/>
</svg>
