<svg width="18" height="17" viewBox="0 0 18 17" fill="none" xmlns="http://www.w3.org/2000/svg">
<path d="M8.99999 14.8542C9.79613 15.5667 10.8475 16 12 16C14.4853 16 16.5 13.9853 16.5 11.5C16.5 9.42481 15.0953 7.67769 13.1849 7.15763M4.81513 7.15762C2.9047 7.67768 1.5 9.4248 1.5 11.5C1.5 13.9853 3.51472 16 6 16C8.48528 16 10.5 13.9853 10.5 11.5C10.5 10.9146 10.3882 10.3554 10.1849 9.84238M13.5 5.5C13.5 7.98528 11.4853 10 9 10C6.51472 10 4.5 7.98528 4.5 5.5C4.5 3.01472 6.51472 1 9 1C11.4853 1 13.5 3.01472 13.5 5.5Z" stroke="#475467" stroke-width="1.5" stroke-linecap="round" stroke-linejoin="round"/>
</svg>
