<svg width="16" height="15" viewBox="0 0 16 15" fill="none" xmlns="http://www.w3.org/2000/svg">
<path d="M7.25 1.5H4.85C3.58988 1.5 2.95982 1.5 2.47852 1.74524C2.05516 1.96095 1.71095 2.30516 1.49524 2.72852C1.25 3.20982 1.25 3.83988 1.25 5.1V10.65C1.25 11.9101 1.25 12.5402 1.49524 13.0215C1.71095 13.4448 2.05516 13.789 2.47852 14.0048C2.95982 14.25 3.58988 14.25 4.85 14.25H10.4C11.6601 14.25 12.2902 14.25 12.7715 14.0048C13.1948 13.789 13.539 13.4448 13.7548 13.0215C14 12.5402 14 11.9101 14 10.65V8.25M14.091 1.40901C14.9697 2.28769 14.9697 3.71231 14.091 4.59099C13.2123 5.46967 11.7877 5.46967 10.909 4.59099C10.0303 3.71231 10.0303 2.28769 10.909 1.40901C11.7877 0.53033 13.2123 0.53033 14.091 1.40901Z" stroke="#475467" stroke-width="1.5" stroke-linecap="round" stroke-linejoin="round"/>
</svg>
