<svg width="18" height="17" viewBox="0 0 18 17" fill="none" xmlns="http://www.w3.org/2000/svg">
<path d="M4.57077 7.9216C4.52416 7.62117 4.49997 7.31339 4.49997 7C4.49997 3.68629 7.20394 1 10.5394 1C13.875 1 16.5789 3.68629 16.5789 7C16.5789 7.74855 16.4409 8.46509 16.1889 9.12588C16.1365 9.26312 16.1103 9.33173 16.0984 9.38531C16.0867 9.43839 16.0821 9.47573 16.0808 9.53009C16.0796 9.58495 16.087 9.64538 16.1019 9.76624L16.4038 12.2189C16.4365 12.4844 16.4528 12.6172 16.4087 12.7137C16.37 12.7982 16.3012 12.8654 16.2158 12.9021C16.1183 12.9441 15.986 12.9247 15.7213 12.8859L13.3323 12.5357C13.2076 12.5174 13.1452 12.5083 13.0884 12.5086C13.0322 12.5089 12.9934 12.513 12.9384 12.5246C12.8828 12.5363 12.8118 12.5629 12.6697 12.6161C12.0073 12.8642 11.2893 13 10.5394 13C10.2258 13 9.91775 12.9762 9.617 12.9305M5.72368 16C7.94736 16 9.75 14.1532 9.75 11.875C9.75 9.59683 7.94736 7.75 5.72368 7.75C3.50001 7.75 1.69737 9.59683 1.69737 11.875C1.69737 12.3329 1.77021 12.7735 1.90466 13.185C1.9615 13.359 1.98992 13.446 1.99924 13.5055C2.00898 13.5675 2.01069 13.6023 2.00706 13.665C2.00359 13.7251 1.98856 13.793 1.95851 13.9287L1.5 16L3.7461 15.6932C3.8687 15.6765 3.93 15.6681 3.98353 15.6685C4.03989 15.6689 4.0698 15.6719 4.12508 15.683C4.17758 15.6934 4.25562 15.721 4.4117 15.776C4.82294 15.9212 5.26433 16 5.72368 16Z" stroke="#475467" stroke-width="1.5" stroke-linecap="round" stroke-linejoin="round"/>
</svg>
