<svg width="24" height="25" viewBox="0 0 24 25" fill="none" xmlns="http://www.w3.org/2000/svg">
<path d="M3.41345 11.5169C2.81811 11.2854 2.52043 11.1697 2.43353 11.0029C2.35819 10.8583 2.35809 10.686 2.43326 10.5413C2.51997 10.3744 2.8175 10.2583 3.41258 10.0261L20.3003 3.43573C20.8375 3.2261 21.1061 3.12129 21.2777 3.17862C21.4268 3.22842 21.5437 3.34538 21.5935 3.49443C21.6509 3.66606 21.5461 3.93465 21.3364 4.47183L14.7461 21.3596C14.5139 21.9547 14.3977 22.2522 14.2308 22.3389C14.0862 22.4141 13.9139 22.414 13.7693 22.3386C13.6025 22.2517 13.4867 21.954 13.2552 21.3587L10.6271 14.6007C10.5801 14.4798 10.5566 14.4194 10.5203 14.3685C10.4881 14.3234 10.4487 14.284 10.4036 14.2518C10.3527 14.2155 10.2923 14.192 10.1715 14.1451L3.41345 11.5169Z" stroke="white" stroke-width="2" stroke-linecap="round" stroke-linejoin="round"/>
</svg>
