<svg width="20" height="23" viewBox="0 0 20 23" fill="none" xmlns="http://www.w3.org/2000/svg">
<path d="M10 5.5C9.45 5.5 8.97917 5.30417 8.5875 4.9125C8.19583 4.52083 8 4.05 8 3.5C8 2.95 8.19583 2.47917 8.5875 2.0875C8.97917 1.69583 9.45 1.5 10 1.5C10.55 1.5 11.0208 1.69583 11.4125 2.0875C11.8042 2.47917 12 2.95 12 3.5C12 4.05 11.8042 4.52083 11.4125 4.9125C11.0208 5.30417 10.55 5.5 10 5.5ZM8 21.5C7.44772 21.5 7 21.0523 7 20.5V11.5C7 10.8025 7 10.4538 6.92333 10.1677C6.71528 9.3912 6.1088 8.78472 5.33234 8.57667C5.04622 8.5 4.69748 8.5 4 8.5H2C1.44772 8.5 1 8.05228 1 7.5V7.5C1 6.94772 1.44772 6.5 2 6.5H18C18.5523 6.5 19 6.94772 19 7.5V7.5C19 8.05228 18.5523 8.5 18 8.5H16C15.3025 8.5 14.9538 8.5 14.6677 8.57667C13.8912 8.78472 13.2847 9.3912 13.0767 10.1677C13 10.4538 13 10.8025 13 11.5V20.5C13 21.0523 12.5523 21.5 12 21.5V21.5C11.4477 21.5 11 21.0523 11 20.5V16.5C11 15.9477 10.5523 15.5 10 15.5V15.5C9.44772 15.5 9 15.9477 9 16.5V20.5C9 21.0523 8.55228 21.5 8 21.5V21.5Z" stroke="#475467" stroke-width="1.5" stroke-linecap="round" stroke-linejoin="round"/>
</svg>
