<svg width="16" height="15" viewBox="0 0 16 15" fill="none" xmlns="http://www.w3.org/2000/svg">
<path d="M5 0.75L11 14.25M1.25 11.25L8 7.5M4.85 14.25H11.15C12.4101 14.25 13.0402 14.25 13.5215 14.0048C13.9448 13.789 14.289 13.4448 14.5048 13.0215C14.75 12.5402 14.75 11.9101 14.75 10.65V4.35C14.75 3.08988 14.75 2.45982 14.5048 1.97852C14.289 1.55516 13.9448 1.21095 13.5215 0.995235C13.0402 0.75 12.4101 0.75 11.15 0.75H4.85C3.58988 0.75 2.95982 0.75 2.47852 0.995235C2.05516 1.21095 1.71095 1.55516 1.49524 1.97852C1.25 2.45982 1.25 3.08988 1.25 4.35V10.65C1.25 11.9101 1.25 12.5402 1.49524 13.0215C1.71095 13.4448 2.05516 13.789 2.47852 14.0048C2.95982 14.25 3.58988 14.25 4.85 14.25Z" stroke="#475467" stroke-width="1.5" stroke-linecap="round" stroke-linejoin="round"/>
</svg>
