<svg width="16" height="12" viewBox="0 0 16 12" fill="none" xmlns="http://www.w3.org/2000/svg">
<path d="M15.1289 6L6.12891 6M15.1289 1.5L6.12891 1.5M15.1289 10.5L6.12891 10.5M3.12891 6C3.12891 6.41421 2.79312 6.75 2.37891 6.75C1.96469 6.75 1.62891 6.41421 1.62891 6C1.62891 5.58579 1.96469 5.25 2.37891 5.25C2.79312 5.25 3.12891 5.58579 3.12891 6ZM3.12891 1.5C3.12891 1.91421 2.79312 2.25 2.37891 2.25C1.96469 2.25 1.62891 1.91421 1.62891 1.5C1.62891 1.08579 1.96469 0.75 2.37891 0.75C2.79312 0.75 3.12891 1.08579 3.12891 1.5ZM3.12891 10.5C3.12891 10.9142 2.79312 11.25 2.37891 11.25C1.96469 11.25 1.62891 10.9142 1.62891 10.5C1.62891 10.0858 1.96469 9.75 2.37891 9.75C2.79312 9.75 3.12891 10.0858 3.12891 10.5Z" stroke="#475467" stroke-width="1.5" stroke-linecap="round" stroke-linejoin="round"/>
</svg>
