<svg width="25" height="24" viewBox="0 0 25 24" fill="none" xmlns="http://www.w3.org/2000/svg">
<path d="M6.59436 11.2288C6.53221 10.8282 6.49996 10.4179 6.49996 10C6.49996 5.58172 10.1052 2 14.5526 2C18.9999 2 22.6052 5.58172 22.6052 10C22.6052 10.9981 22.4213 11.9535 22.0852 12.8345C22.0154 13.0175 21.9804 13.109 21.9646 13.1804C21.9489 13.2512 21.9428 13.301 21.9411 13.3735C21.9394 13.4466 21.9493 13.5272 21.9692 13.6883L22.3717 16.9585C22.4153 17.3125 22.4371 17.4895 22.3782 17.6182C22.3266 17.731 22.235 17.8205 22.1211 17.8695C21.9911 17.9254 21.8146 17.8995 21.4617 17.8478L18.2765 17.3809C18.1101 17.3565 18.027 17.3443 17.9512 17.3448C17.8763 17.3452 17.8245 17.3507 17.7511 17.3661C17.677 17.3817 17.5823 17.4172 17.393 17.4881C16.5097 17.819 15.5524 18 14.5526 18C14.1344 18 13.7237 17.9683 13.3227 17.9073M8.13158 22C11.0965 22 13.5 19.5376 13.5 16.5C13.5 13.4624 11.0965 11 8.13158 11C5.16668 11 2.76316 13.4624 2.76316 16.5C2.76316 17.1106 2.86028 17.6979 3.03955 18.2467C3.11533 18.4787 3.15322 18.5947 3.16566 18.6739C3.17864 18.7567 3.18091 18.8031 3.17608 18.8867C3.17145 18.9668 3.15141 19.0573 3.11134 19.2383L2.5 22L5.4948 21.591C5.65827 21.5687 5.74 21.5575 5.81137 21.558C5.88652 21.5585 5.92641 21.5626 6.00011 21.5773C6.0701 21.5912 6.17416 21.6279 6.38227 21.7014C6.93059 21.8949 7.51911 22 8.13158 22Z" stroke="#667085" stroke-width="2" stroke-linecap="round" stroke-linejoin="round"/>
</svg>
