<svg width="23" height="23" viewBox="0 0 23 23" fill="none" xmlns="http://www.w3.org/2000/svg">
<path d="M9.75781 14.5L6.68256 17.6137C6.2536 18.048 6.03912 18.2652 5.85476 18.2805C5.69482 18.2938 5.53823 18.2295 5.43377 18.1076C5.31337 17.9672 5.31337 17.662 5.31337 17.0515V15.4916C5.31337 14.944 4.86489 14.5477 4.32302 14.4683V14.4683C3.01156 14.2762 1.98159 13.2463 1.78949 11.9348C1.75781 11.7186 1.75781 11.4605 1.75781 10.9444V6.3C1.75781 4.61984 1.75781 3.77976 2.08479 3.13803C2.37241 2.57354 2.83135 2.1146 3.39584 1.82698C4.03758 1.5 4.87766 1.5 6.55781 1.5H13.9578C15.638 1.5 16.478 1.5 17.1198 1.82698C17.6843 2.1146 18.1432 2.57354 18.4308 3.13803C18.7578 3.77976 18.7578 4.61984 18.7578 6.3V10.5M18.7578 21.5L16.5814 19.9869C16.2755 19.7742 16.1225 19.6678 15.956 19.5924C15.8083 19.5255 15.6529 19.4768 15.4934 19.4474C15.3137 19.4143 15.1273 19.4143 14.7547 19.4143H12.9578C11.8377 19.4143 11.2777 19.4143 10.8498 19.1963C10.4735 19.0046 10.1675 18.6986 9.9758 18.3223C9.75781 17.8944 9.75781 17.3344 9.75781 16.2143V13.7C9.75781 12.5799 9.75781 12.0198 9.9758 11.592C10.1675 11.2157 10.4735 10.9097 10.8498 10.718C11.2777 10.5 11.8377 10.5 12.9578 10.5H18.5578C19.6779 10.5 20.238 10.5 20.6658 10.718C21.0421 10.9097 21.3481 11.2157 21.5398 11.592C21.7578 12.0198 21.7578 12.5799 21.7578 13.7V16.4143C21.7578 17.3462 21.7578 17.8121 21.6056 18.1797C21.4026 18.6697 21.0132 19.0591 20.5232 19.262C20.28 19.3628 19.9937 19.3969 19.5579 19.4084C19.2704 19.416 19.1267 19.4198 19.0226 19.4753C18.9294 19.525 18.8577 19.5986 18.8105 19.6931C18.7578 19.7986 18.7578 19.9371 18.7578 20.2143V21.5Z" stroke="white" stroke-width="2" stroke-linecap="round" stroke-linejoin="round"/>
</svg>
