<svg width="47" height="47" viewBox="0 0 47 47" fill="none" xmlns="http://www.w3.org/2000/svg">
<rect x="0.744681" y="0.744681" width="45.5106" height="45.5106" rx="8.40958" fill="#FFC09D"/>
<rect x="0.744681" y="0.744681" width="45.5106" height="45.5106" rx="8.40958" stroke="#D94B00" stroke-width="0.989362"/>
<g clip-path="url(#clip0_2626_9545)">
<path d="M8.96861 10.4633C10.1572 10.4633 11.1208 9.49977 11.1208 8.31114C11.1208 7.12251 10.1572 6.15894 8.96861 6.15894C7.77998 6.15894 6.81641 7.12251 6.81641 8.31114C6.81641 9.49977 7.77998 10.4633 8.96861 10.4633Z" fill="#FF965D"/>
<path d="M19.0122 20.507C20.2008 20.507 21.1644 19.5434 21.1644 18.3547C21.1644 17.1661 20.2008 16.2025 19.0122 16.2025C17.8236 16.2025 16.86 17.1661 16.86 18.3547C16.86 19.5434 17.8236 20.507 19.0122 20.507Z" fill="#FF965D"/>
<path d="M13.6317 8.31114H13.9434C16.1294 8.31114 17.2225 8.31114 17.6374 8.70376C17.9961 9.04315 18.155 9.54312 18.0582 10.0273C17.9462 10.5875 17.0538 11.2187 15.269 12.4811L12.3531 14.5435C10.5683 15.8059 9.67596 16.4371 9.56393 16.9973C9.4671 17.4815 9.62605 17.9814 9.98471 18.3208C10.3996 18.7134 11.4927 18.7134 13.6788 18.7134H14.3491M11.1208 8.31114C11.1208 9.49977 10.1572 10.4633 8.96861 10.4633C7.77998 10.4633 6.81641 9.49977 6.81641 8.31114C6.81641 7.12251 7.77998 6.15894 8.96861 6.15894C10.1572 6.15894 11.1208 7.12251 11.1208 8.31114ZM21.1644 18.3547C21.1644 19.5434 20.2008 20.507 19.0122 20.507C17.8236 20.507 16.86 19.5434 16.86 18.3547C16.86 17.1661 17.8236 16.2025 19.0122 16.2025C20.2008 16.2025 21.1644 17.1661 21.1644 18.3547Z" stroke="#F25400" stroke-width="1.71316" stroke-linecap="round" stroke-linejoin="round"/>
</g>
<g clip-path="url(#clip1_2626_9545)">
<path d="M26.8481 12.4323C26.421 12.2662 26.2074 12.1831 26.1451 12.0635C26.091 11.9597 26.091 11.8362 26.1449 11.7324C26.2071 11.6126 26.4205 11.5293 26.8475 11.3627L38.9627 6.63481C39.3481 6.48442 39.5408 6.40922 39.6639 6.45036C39.7708 6.48608 39.8548 6.56999 39.8905 6.67692C39.9316 6.80004 39.8564 6.99273 39.706 7.3781L34.9781 19.4934C34.8115 19.9203 34.7282 20.1337 34.6085 20.196C34.5047 20.2499 34.3811 20.2498 34.2774 20.1958C34.1577 20.1334 34.0747 19.9199 33.9086 19.4928L32.0232 14.6446C31.9894 14.5579 31.9726 14.5145 31.9465 14.478C31.9235 14.4457 31.8952 14.4174 31.8628 14.3943C31.8263 14.3683 31.783 14.3514 31.6963 14.3177L26.8481 12.4323Z" fill="#FF965D" stroke="#F25400" stroke-width="1.71316" stroke-linecap="round" stroke-linejoin="round"/>
</g>
<path d="M11.8917 36.9223C14.8484 36.9223 17.2453 34.5254 17.2453 31.5687C17.2453 28.612 14.8484 26.2151 11.8917 26.2151C8.93498 26.2151 6.53809 28.612 6.53809 31.5687C6.53809 34.5254 8.93498 36.9223 11.8917 36.9223Z" fill="#FF965D"/>
<path d="M20.3045 39.9815L15.7158 35.3927M17.2453 31.5687C17.2453 34.5254 14.8484 36.9223 11.8917 36.9223C8.93498 36.9223 6.53809 34.5254 6.53809 31.5687C6.53809 28.612 8.93498 26.2151 11.8917 26.2151C14.8484 26.2151 17.2453 28.612 17.2453 31.5687Z" stroke="#F25400" stroke-width="1.71316" stroke-linecap="round" stroke-linejoin="round"/>
<path d="M26.6934 32.001C26.6934 31.5618 26.6934 31.3421 26.75 31.1399C26.8001 30.9607 26.8825 30.7922 26.9932 30.6426C27.1181 30.4737 27.2915 30.3389 27.6382 30.0692L32.8253 26.0348C33.094 25.8258 33.2284 25.7213 33.3767 25.6811C33.5076 25.6457 33.6456 25.6457 33.7765 25.6811C33.9248 25.7213 34.0592 25.8258 34.3279 26.0348L39.515 30.0692C39.8617 30.3389 40.0351 30.4737 40.16 30.6426C40.2706 30.7922 40.353 30.9607 40.4032 31.1399C40.4598 31.3421 40.4598 31.5618 40.4598 32.001V37.5343C40.4598 38.391 40.4598 38.8193 40.2931 39.1465C40.1464 39.4343 39.9124 39.6683 39.6246 39.815C39.2974 39.9817 38.8691 39.9817 38.0124 39.9817H29.1407C28.2841 39.9817 27.8557 39.9817 27.5285 39.815C27.2407 39.6683 27.0067 39.4343 26.8601 39.1465C26.6934 38.8193 26.6934 38.391 26.6934 37.5343V32.001Z" fill="#FF965D" stroke="#F25400" stroke-width="1.71316" stroke-linecap="round" stroke-linejoin="round"/>
<defs>
<clipPath id="clip0_2626_9545">
<rect width="17.2176" height="17.2176" fill="white" transform="translate(5.38184 4.72412)"/>
</clipPath>
<clipPath id="clip1_2626_9545">
<rect width="17.2176" height="17.2176" fill="white" transform="translate(24.3994 4.72412)"/>
</clipPath>
</defs>
</svg>
