<svg width="99" height="64" viewBox="0 0 99 64" fill="none" xmlns="http://www.w3.org/2000/svg">
<path d="M24.5002 48.0002L5.8335 58.6668V16.0002L24.5002 5.3335M24.5002 48.0002L43.1668 58.6668M24.5002 48.0002V5.3335M43.1668 58.6668L59.1668 48.0002V5.3335L43.1668 16.0002M43.1668 58.6668V16.0002M43.1668 16.0002L24.5002 5.3335" stroke="#475467" stroke-width="4" stroke-linecap="round" stroke-linejoin="round"/>
<path d="M87.1668 37.6668C87.1668 37.6668 85.0418 34.8335 81.5002 34.8335C77.9585 34.8335 75.8335 37.6668 75.8335 37.6668M85.7502 27.7502H85.7643M77.2502 27.7502H77.2643M95.6668 32.0002C95.6668 39.8242 89.3242 46.1668 81.5002 46.1668C73.6761 46.1668 67.3335 39.8242 67.3335 32.0002C67.3335 24.1761 73.6761 17.8335 81.5002 17.8335C89.3242 17.8335 95.6668 24.1761 95.6668 32.0002ZM86.4585 27.7502C86.4585 28.1414 86.1414 28.4585 85.7502 28.4585C85.359 28.4585 85.0418 28.1414 85.0418 27.7502C85.0418 27.359 85.359 27.0418 85.7502 27.0418C86.1414 27.0418 86.4585 27.359 86.4585 27.7502ZM77.9585 27.7502C77.9585 28.1414 77.6414 28.4585 77.2502 28.4585C76.859 28.4585 76.5418 28.1414 76.5418 27.7502C76.5418 27.359 76.859 27.0418 77.2502 27.0418C77.6414 27.0418 77.9585 27.359 77.9585 27.7502Z" stroke="#475467" stroke-width="2.125" stroke-linecap="round" stroke-linejoin="round"/>
</svg>
