<svg width="15" height="14" viewBox="0 0 15 14" fill="none" xmlns="http://www.w3.org/2000/svg">
<path d="M14.2 4.15656L14.2 4.15519C14.1837 3.26489 13.8218 2.41583 13.1907 1.7876L11.7632 0.361748L11.7632 0.361741L11.7623 0.360866C11.6421 0.24474 11.481 0.180484 11.3139 0.181936C11.1467 0.183389 10.9868 0.250434 10.8686 0.368631C10.7504 0.486829 10.6834 0.646722 10.6819 0.813873C10.6805 0.981023 10.7447 1.14206 10.8609 1.26229L10.8609 1.2623L10.8618 1.26322L11.8 2.20144V3.625C11.8 3.94326 11.9264 4.24848 12.1515 4.47353C12.3588 4.68083 12.6341 4.80445 12.925 4.82266V10.375C12.925 10.5043 12.8736 10.6283 12.7822 10.7197C12.6908 10.8111 12.5668 10.8625 12.4375 10.8625C12.3082 10.8625 12.1842 10.8111 12.0928 10.7197C12.0014 10.6283 11.95 10.5043 11.95 10.375V9.8125C11.95 9.34506 11.7643 8.89676 11.4338 8.56622C11.1032 8.23569 10.6549 8.05 10.1875 8.05H9.7V3.0625V3.06241C9.69908 2.2969 9.39458 1.56301 8.85328 1.02172C8.31199 0.48042 7.5781 0.175917 6.81259 0.175H6.8125L3.4375 0.175L3.43741 0.175C2.6719 0.175917 1.93801 0.48042 1.39672 1.02172C0.85542 1.56301 0.550917 2.2969 0.55 3.06241V3.0625L0.55 10.9375L0.55 10.9376C0.550917 11.7031 0.85542 12.437 1.39672 12.9783C1.93801 13.5196 2.6719 13.8241 3.43741 13.825H3.4375H6.8125H6.81259C7.5781 13.8241 8.31199 13.5196 8.85328 12.9783C9.39458 12.437 9.69908 11.7031 9.7 10.9376V10.9375V9.325H10.1875C10.3168 9.325 10.4408 9.37636 10.5322 9.46778C10.6236 9.55921 10.675 9.68321 10.675 9.8125V10.375C10.675 10.8424 10.8607 11.2907 11.1912 11.6213C11.5218 11.9518 11.9701 12.1375 12.4375 12.1375C12.9049 12.1375 13.3532 11.9518 13.6838 11.6213C14.0143 11.2907 14.2 10.8424 14.2 10.375H14.125L14.2 10.3749V10.3747V10.3744V10.3739V10.3732V10.3725V10.3716V10.3705V10.3693V10.368V10.3665V10.3649V10.3632V10.3613V10.3593V10.3572V10.3549V10.3525V10.35V10.3473V10.3445V10.3416V10.3385V10.3354V10.332V10.3286V10.325V10.3213V10.3175V10.3136V10.3095V10.3053V10.301V10.2965V10.2919V10.2872V10.2824V10.2775V10.2724V10.2672V10.2619V10.2565V10.251V10.2453V10.2395V10.2337V10.2277V10.2215V10.2153V10.2089V10.2025V10.1959V10.1892V10.1824V10.1755V10.1684V10.1613V10.154V10.1467V10.1392V10.1316V10.1239V10.1161V10.1082V10.1002V10.0921V10.0839V10.0755V10.0671V10.0586V10.0499V10.0412V10.0323V10.0234V10.0143V10.0052V9.99595V9.98661V9.97716V9.96762V9.95797V9.94824V9.9384V9.92847V9.91844V9.90832V9.8981V9.88779V9.87739V9.86689V9.8563V9.84562V9.83485V9.82399V9.81304V9.802V9.79087V9.77965V9.76834V9.75695V9.74547V9.7339V9.72225V9.71052V9.6987V9.68679V9.6748V9.66273V9.65058V9.63834V9.62603V9.61363V9.60116V9.5886V9.57597V9.56325V9.55046V9.5376V9.52465V9.51163V9.49853V9.48536V9.47212V9.4588V9.44541V9.43194V9.4184V9.40479V9.39111V9.37736V9.36354V9.34965V9.33569V9.32166V9.30757V9.2934V9.27918V9.26488V9.25052V9.23609V9.2216V9.20705V9.19243V9.17775V9.16301V9.1482V9.13334V9.11841V9.10343V9.08838V9.07327V9.05811V9.04289V9.02761V9.01228V8.99689V8.98144V8.96594V8.95038V8.93477V8.91911V8.9034V8.88763V8.87181V8.85594V8.84002V8.82404V8.80802V8.79195V8.77584V8.75967V8.74345V8.72719V8.71089V8.69454V8.67814V8.6617V8.64521V8.62868V8.61211V8.5955V8.57884V8.56215V8.54541V8.52863V8.51182V8.49496V8.47807V8.46113V8.44417V8.42716V8.41012V8.39304V8.37593V8.35878V8.3416V8.32438V8.30714V8.28986V8.27254V8.2552V8.23783V8.22043V8.20299V8.18553V8.16804V8.15052V8.13298V8.11541V8.09781V8.08018V8.06253V8.04486V8.02716V8.00944V7.9917V7.97393V7.95615V7.93834V7.92051V7.90266V7.88479V7.8669V7.84899V7.83107V7.81313V7.79517V7.77719V7.7592V7.7412V7.72318V7.70514V7.6871V7.66904V7.65096V7.63288V7.61478V7.59668V7.57856V7.56044V7.5423V7.52416V7.50601V7.48785V7.46968V7.45151V7.43334V7.41515V7.39697V7.37878V7.36058V7.34238V7.32418V7.30598V7.28778V7.26958V7.25137V7.23317V7.21497V7.19677V7.17857V7.16038V7.14218V7.124V7.10581V7.08763V7.06946V7.05129V7.03313V7.01498V6.99683V6.97869V6.96056V6.94244V6.92433V6.90623V6.88814V6.87006V6.852V6.83394V6.81591V6.79788V6.77987V6.76187V6.74389V6.72592V6.70798V6.69004V6.67213V6.65423V6.63636V6.6185V6.60066V6.58284V6.56505V6.54727V6.52952V6.51179V6.49408V6.4764V6.45874V6.4411V6.42349V6.40591V6.38835V6.37083V6.35332V6.33585V6.3184V6.30099V6.2836V6.26625V6.24892V6.23163V6.21437V6.19714V6.17995V6.16278V6.14566V6.12856V6.11151V6.09449V6.0775V6.06055V6.04364V6.02677V6.00994V5.99315V5.97639V5.95968V5.94301V5.92637V5.90978V5.89324V5.87673V5.86027V5.84386V5.82749V5.81116V5.79488V5.77865V5.76246V5.74633V5.73024V5.71419V5.6982V5.68226V5.66637V5.65053V5.63474V5.619V5.60331V5.58768V5.5721V5.55658V5.54111V5.5257V5.51034V5.49504V5.47979V5.4646V5.44948V5.4344V5.41939V5.40444V5.38955V5.37472V5.35995V5.34525V5.3306V5.31602V5.3015V5.28705V5.27266V5.25834V5.24408V5.22989V5.21577V5.20171V5.18772V5.17381V5.15996V5.14617V5.13246V5.11883V5.10526V5.09176V5.07834V5.06499V5.05171V5.03851V5.02538V5.01233V4.99935V4.98645V4.97363V4.96089V4.94822V4.93563V4.92312V4.91069V4.89834V4.88607V4.87389V4.86178V4.84976V4.83782V4.82596V4.81419V4.8025V4.7909V4.77939V4.76796V4.75661V4.74536V4.73419V4.72311V4.71212V4.70122V4.69042V4.6797V4.66907V4.65854V4.64809V4.63774V4.62749V4.61733V4.60726V4.59729V4.58741V4.57763V4.56795V4.55837V4.54888V4.53949V4.5302V4.52101V4.51192V4.50293V4.49405V4.48526V4.47658V4.468V4.45952V4.45115V4.44289V4.43472V4.42667V4.41872V4.41088V4.40314V4.39551V4.38799V4.38059V4.37329V4.3661V4.35902V4.35205V4.34519V4.33845V4.33182V4.32531V4.3189V4.31262V4.30644V4.30039V4.29445V4.28862V4.28292V4.27733V4.27186V4.26651V4.26128V4.25617V4.25118V4.24631V4.24157V4.23694V4.23244V4.22807V4.22381V4.21969V4.21568V4.21181V4.20805V4.20443V4.20093V4.19757V4.19433V4.19121V4.18823V4.18538V4.18266V4.18007V4.17762V4.17529V4.1731V4.17104V4.16912V4.16733V4.16567V4.16416V4.16277V4.16153V4.16042V4.15945V4.15862V4.15793V4.15738V4.15696V4.15669L14.2 4.15656ZM3.4375 1.45H6.8125C7.24016 1.45 7.65031 1.61989 7.95271 1.92229C8.25511 2.22469 8.425 2.63484 8.425 3.0625V5.2375H1.825V3.0625C1.825 2.63484 1.99489 2.22469 2.29729 1.92229C2.59969 1.61989 3.00984 1.45 3.4375 1.45ZM8.425 10.9375C8.425 11.3652 8.25511 11.7753 7.95271 12.0777C7.65031 12.3801 7.24016 12.55 6.8125 12.55H3.4375C3.00984 12.55 2.59969 12.3801 2.29729 12.0777C1.99489 11.7753 1.825 11.3652 1.825 10.9375V6.5125H8.425V10.9375Z" fill="#475467" stroke="#475467" stroke-width="0.15"/>
</svg>
