<svg width="17" height="16" viewBox="0 0 17 16" fill="none" xmlns="http://www.w3.org/2000/svg">
<path d="M5.425 11.75C5.425 12.1364 5.73791 12.45 6.125 12.45C6.51209 12.45 6.825 12.1364 6.825 11.75V9.325H9.5625C11.1545 9.325 12.45 8.02955 12.45 6.4375C12.45 4.84545 11.1545 3.55 9.5625 3.55H8C6.57983 3.55 5.425 4.70483 5.425 6.125V11.75ZM9.5625 7.925H6.825V6.125C6.825 5.47705 7.35205 4.95 8 4.95H9.5625C10.3829 4.95 11.05 5.61765 11.05 6.4375C11.05 7.25735 10.3829 7.925 9.5625 7.925ZM4.25 15.575H13C14.7645 15.575 16.2 14.1395 16.2 12.375V3.625C16.2 1.86045 14.7645 0.425 13 0.425H4.25C2.48545 0.425 1.05 1.86045 1.05 3.625V12.375C1.05 14.1395 2.48545 15.575 4.25 15.575ZM2.45 3.625C2.45 2.63267 3.25767 1.825 4.25 1.825H13C13.9923 1.825 14.8 2.63267 14.8 3.625V12.375C14.8 13.3673 13.9923 14.175 13 14.175H4.25C3.25767 14.175 2.45 13.3673 2.45 12.375V3.625Z" fill="#475467" stroke="#475467" stroke-width="0.15"/>
</svg>
