<svg width="25" height="24" viewBox="0 0 25 24" fill="none" xmlns="http://www.w3.org/2000/svg">
<path d="M18.2422 10.0001L14.2422 6.00006M2.74219 21.5001L6.12656 21.124C6.54005 21.0781 6.74679 21.0551 6.94003 20.9925C7.11148 20.937 7.27463 20.8586 7.42507 20.7594C7.59464 20.6476 7.74173 20.5005 8.03591 20.2063L21.2422 7.00006C22.3468 5.89549 22.3468 4.10463 21.2422 3.00006C20.1376 1.89549 18.3468 1.89549 17.2422 3.00006L4.03592 16.2063C3.74173 16.5005 3.59464 16.6476 3.48282 16.8172C3.38362 16.9676 3.3052 17.1308 3.2497 17.3022C3.18714 17.4955 3.16417 17.7022 3.11823 18.1157L2.74219 21.5001Z" stroke="#475467" stroke-width="2" stroke-linecap="round" stroke-linejoin="round"/>
</svg>
