<svg width="18" height="18" viewBox="0 0 18 18" fill="none" xmlns="http://www.w3.org/2000/svg">
<g id="shield-02">
<path id="Icon" d="M8.47651 16.2113C8.64255 16.3082 8.72557 16.3566 8.84274 16.3818C8.93367 16.4013 9.06633 16.4013 9.15726 16.3818C9.27443 16.3566 9.35745 16.3082 9.52349 16.2113C10.9845 15.359 15 12.6815 15 9.00017V6.15017C15 5.34475 15 4.94204 14.8758 4.65617C14.7497 4.36562 14.6239 4.21106 14.3652 4.02835C14.1106 3.84859 13.6115 3.74479 12.6133 3.53719C11.5131 3.30838 10.6682 2.8952 9.89578 2.29766C9.52538 2.01112 9.34018 1.86785 9.19525 1.82878C9.04233 1.78754 8.95767 1.78754 8.80475 1.82878C8.65982 1.86785 8.47462 2.01112 8.10422 2.29766C7.33179 2.8952 6.4869 3.30838 5.38672 3.53719C4.38853 3.74479 3.88943 3.84859 3.63483 4.02835C3.37607 4.21106 3.25034 4.36562 3.12415 4.65617C3 4.94204 3 5.34475 3 6.15017V9.00017C3 12.6815 7.01547 15.359 8.47651 16.2113Z" stroke="#475467" stroke-width="1.5" stroke-linecap="round" stroke-linejoin="round"/>
</g>
</svg>
