<svg width="24" height="25" viewBox="0 0 24 25" fill="none" xmlns="http://www.w3.org/2000/svg">
<path d="M9.09 9.77246C9.3251 9.10413 9.78915 8.54057 10.4 8.18159C11.0108 7.82262 11.7289 7.6914 12.4272 7.81117C13.1255 7.93095 13.7588 8.29399 14.2151 8.83599C14.6713 9.37799 14.9211 10.064 14.92 10.7725C14.92 12.7725 11.92 13.7725 11.92 13.7725M12 17.7725H12.01M22 12.7725C22 18.2953 17.5228 22.7725 12 22.7725C6.47715 22.7725 2 18.2953 2 12.7725C2 7.24961 6.47715 2.77246 12 2.77246C17.5228 2.77246 22 7.24961 22 12.7725Z" stroke="#475467" stroke-width="2" stroke-linecap="round" stroke-linejoin="round"/>
</svg>
