<svg width="13" height="12" viewBox="0 0 13 12" fill="none" xmlns="http://www.w3.org/2000/svg">
<path d="M6.12549 6.00002H2.91716M2.86778 6.17006L1.50574 10.2386C1.39874 10.5583 1.34524 10.7181 1.38363 10.8165C1.41697 10.902 1.48859 10.9668 1.57695 10.9914C1.6787 11.0198 1.83239 10.9507 2.13977 10.8123L11.8881 6.42558C12.1882 6.29057 12.3382 6.22306 12.3845 6.12929C12.4248 6.04781 12.4248 5.95222 12.3845 5.87075C12.3382 5.77697 12.1882 5.70946 11.8881 5.57445L2.13637 1.18619C1.82992 1.04829 1.6767 0.979334 1.57504 1.00762C1.48676 1.03218 1.41516 1.09681 1.3817 1.18212C1.34317 1.28035 1.3961 1.43982 1.50196 1.75876L2.86816 5.87491C2.88634 5.92969 2.89543 5.95708 2.89902 5.98509C2.9022 6.00994 2.90217 6.03511 2.89892 6.05996C2.89526 6.08796 2.8861 6.11533 2.86778 6.17006Z" stroke="#238816" stroke-width="1.16667" stroke-linecap="round" stroke-linejoin="round"/>
</svg>
