<svg width="21" height="23" viewBox="0 0 21 23" fill="none" xmlns="http://www.w3.org/2000/svg">
<path d="M7.89504 19.1436L8.47949 20.458C8.65323 20.8493 8.93676 21.1817 9.29571 21.4151C9.65466 21.6484 10.0736 21.7725 10.5017 21.7725C10.9298 21.7725 11.3488 21.6484 11.7077 21.4151C12.0667 21.1817 12.3502 20.8493 12.5239 20.458L13.1084 19.1436C13.3164 18.6772 13.6664 18.2883 14.1084 18.0325C14.5532 17.7759 15.0677 17.6666 15.5784 17.7202L17.0084 17.8725C17.434 17.9175 17.8636 17.8381 18.2451 17.6438C18.6265 17.4495 18.9434 17.1488 19.1573 16.778C19.3714 16.4075 19.4735 15.9827 19.451 15.5553C19.4285 15.1279 19.2825 14.7163 19.0306 14.3702L18.1839 13.2069C17.8825 12.7896 17.7214 12.2873 17.7239 11.7725C17.7238 11.259 17.8864 10.7588 18.1884 10.3436L19.035 9.18024C19.2869 8.83422 19.433 8.42253 19.4554 7.99513C19.4779 7.56774 19.3759 7.143 19.1617 6.77246C18.9478 6.4017 18.6309 6.10095 18.2495 5.90669C17.8681 5.71243 17.4385 5.63299 17.0128 5.67802L15.5828 5.83024C15.0722 5.88387 14.5576 5.77458 14.1128 5.51802C13.6699 5.26071 13.3199 4.86982 13.1128 4.40135L12.5239 3.08691C12.3502 2.69563 12.0667 2.36318 11.7077 2.12986C11.3488 1.89654 10.9298 1.77239 10.5017 1.77246C10.0736 1.77239 9.65466 1.89654 9.29571 2.12986C8.93676 2.36318 8.65323 2.69563 8.47949 3.08691L7.89504 4.40135C7.68797 4.86982 7.33792 5.26071 6.89504 5.51802C6.45026 5.77458 5.93571 5.88387 5.42504 5.83024L3.9906 5.67802C3.56493 5.63299 3.13534 5.71243 2.75391 5.90669C2.37249 6.10095 2.05561 6.4017 1.84171 6.77246C1.62753 7.143 1.52549 7.56774 1.54798 7.99513C1.57046 8.42253 1.7165 8.83422 1.96838 9.18024L2.81504 10.3436C3.11698 10.7588 3.27958 11.259 3.27949 11.7725C3.27958 12.2859 3.11698 12.7861 2.81504 13.2014L1.96838 14.3647C1.7165 14.7107 1.57046 15.1224 1.54798 15.5498C1.52549 15.9772 1.62753 16.4019 1.84171 16.7725C2.05582 17.143 2.37274 17.4436 2.75411 17.6379C3.13548 17.8321 3.56496 17.9116 3.9906 17.8669L5.4206 17.7147C5.93127 17.6611 6.44581 17.7703 6.8906 18.0269C7.33513 18.2835 7.68681 18.6745 7.89504 19.1436Z" stroke="#475467" stroke-width="2" stroke-linecap="round" stroke-linejoin="round"/>
<path d="M10.4999 14.7725C12.1568 14.7725 13.4999 13.4293 13.4999 11.7725C13.4999 10.1156 12.1568 8.77246 10.4999 8.77246C8.84307 8.77246 7.49992 10.1156 7.49992 11.7725C7.49992 13.4293 8.84307 14.7725 10.4999 14.7725Z" stroke="#475467" stroke-width="2" stroke-linecap="round" stroke-linejoin="round"/>
</svg>
