<svg width="16" height="18" viewBox="0 0 16 18" fill="none" xmlns="http://www.w3.org/2000/svg">
<path d="M5.82141 10.1325L10.9439 13.1175M10.9364 4.8825L5.82141 7.8675M15.1289 3.75C15.1289 4.99264 14.1215 6 12.8789 6C11.6363 6 10.6289 4.99264 10.6289 3.75C10.6289 2.50736 11.6363 1.5 12.8789 1.5C14.1215 1.5 15.1289 2.50736 15.1289 3.75ZM6.12891 9C6.12891 10.2426 5.12155 11.25 3.87891 11.25C2.63627 11.25 1.62891 10.2426 1.62891 9C1.62891 7.75736 2.63627 6.75 3.87891 6.75C5.12155 6.75 6.12891 7.75736 6.12891 9ZM15.1289 14.25C15.1289 15.4926 14.1215 16.5 12.8789 16.5C11.6363 16.5 10.6289 15.4926 10.6289 14.25C10.6289 13.0074 11.6363 12 12.8789 12C14.1215 12 15.1289 13.0074 15.1289 14.25Z" stroke="#475467" stroke-width="1.5" stroke-linecap="round" stroke-linejoin="round"/>
</svg>
