<svg width="99" height="64" viewBox="0 0 99 64" fill="none" xmlns="http://www.w3.org/2000/svg">
<path d="M30.639 57.6399C31.2294 57.9843 31.5246 58.1565 31.9412 58.2459C32.2645 58.3152 32.7362 58.3152 33.0595 58.2459C33.4761 58.1565 33.7713 57.9843 34.3616 57.6399C39.5564 54.6093 53.8337 45.0894 53.8337 32.0002V19.2472C53.8337 17.1151 53.8337 16.0491 53.485 15.1328C53.1769 14.3233 52.6764 13.601 52.0266 13.0283C51.291 12.3801 50.2929 12.0058 48.2966 11.2572L33.9985 5.89536C33.4441 5.68746 33.1669 5.58351 32.8817 5.5423C32.6288 5.50576 32.3719 5.50576 32.119 5.5423C31.8338 5.58351 31.5566 5.68746 31.0022 5.89536L16.7041 11.2572C14.7078 12.0058 13.7096 12.3801 12.9741 13.0283C12.3243 13.601 11.8237 14.3233 11.5157 15.1328C11.167 16.0491 11.167 17.1151 11.167 19.2472V32.0002C11.167 45.0894 25.4442 54.6093 30.639 57.6399Z" stroke="#475467" stroke-width="4" stroke-linecap="round" stroke-linejoin="round"/>
<path d="M74.417 39.0834L88.5837 24.9167M88.5837 24.9167H74.417M88.5837 24.9167V39.0834" stroke="#475467" stroke-width="2.125" stroke-linecap="round" stroke-linejoin="round"/>
</svg>
