<svg width="22" height="18" viewBox="0 0 22 18" fill="none" xmlns="http://www.w3.org/2000/svg">
<path d="M18.7479 1.99993C20.1652 3.97016 21 6.38756 21 8.99993C21 11.6123 20.1652 14.0297 18.7479 15.9999M14.7453 4.99993C15.5362 6.13376 16 7.51268 16 8.99993C16 10.4872 15.5362 11.8661 14.7453 12.9999M8.63432 2.36561L5.46863 5.5313C5.29568 5.70425 5.2092 5.79073 5.10828 5.85257C5.01881 5.9074 4.92127 5.9478 4.81923 5.9723C4.70414 5.99993 4.58185 5.99993 4.33726 5.99993H2.6C2.03995 5.99993 1.75992 5.99993 1.54601 6.10892C1.35785 6.20479 1.20487 6.35777 1.10899 6.54594C1 6.75985 1 7.03987 1 7.59993V10.3999C1 10.96 1 11.24 1.10899 11.4539C1.20487 11.6421 1.35785 11.7951 1.54601 11.8909C1.75992 11.9999 2.03995 11.9999 2.6 11.9999H4.33726C4.58185 11.9999 4.70414 11.9999 4.81923 12.0276C4.92127 12.0521 5.01881 12.0925 5.10828 12.1473C5.2092 12.2091 5.29568 12.2956 5.46863 12.4686L8.63431 15.6342C9.06269 16.0626 9.27688 16.2768 9.46077 16.2913C9.62033 16.3038 9.77626 16.2392 9.8802 16.1175C10 15.9773 10 15.6744 10 15.0686V2.9313C10 2.32548 10 2.02257 9.8802 1.88231C9.77626 1.76061 9.62033 1.69602 9.46077 1.70858C9.27688 1.72305 9.06269 1.93724 8.63432 2.36561Z" stroke="#667085" stroke-width="2" stroke-linecap="round" stroke-linejoin="round"/>
</svg>
