<svg width="25" height="25" viewBox="0 0 25 25" fill="none" xmlns="http://www.w3.org/2000/svg">
<path d="M2.5 15.2724L12.1422 20.0935C12.2734 20.1591 12.339 20.1919 12.4078 20.2048C12.4687 20.2162 12.5313 20.2162 12.5922 20.2048C12.661 20.1919 12.7266 20.1591 12.8578 20.0935L22.5 15.2724M2.5 10.2724L12.1422 5.45129C12.2734 5.3857 12.339 5.3529 12.4078 5.34C12.4687 5.32856 12.5313 5.32856 12.5922 5.34C12.661 5.3529 12.7266 5.3857 12.8578 5.45129L22.5 10.2724L12.8578 15.0935C12.7266 15.1591 12.661 15.1919 12.5922 15.2048C12.5313 15.2162 12.4687 15.2162 12.4078 15.2048C12.339 15.1919 12.2734 15.1591 12.1422 15.0935L2.5 10.2724Z" stroke="#475467" stroke-width="2" stroke-linecap="round" stroke-linejoin="round"/>
</svg>
