<svg width="19" height="18" viewBox="0 0 19 18" fill="none" xmlns="http://www.w3.org/2000/svg">
<path d="M9.32722 2.58993C9.50009 2.23972 9.58652 2.06462 9.70386 2.00867C9.80594 1.96 9.92455 1.96 10.0266 2.00867C10.144 2.06462 10.2304 2.23972 10.4033 2.58993L12.0433 5.9124C12.0943 6.01579 12.1198 6.06748 12.1571 6.10762C12.1901 6.14316 12.2297 6.17195 12.2737 6.1924C12.3234 6.21551 12.3804 6.22384 12.4945 6.24052L16.163 6.77672C16.5493 6.83318 16.7424 6.86141 16.8318 6.95577C16.9096 7.03786 16.9462 7.15066 16.9314 7.26277C16.9143 7.39162 16.7745 7.52782 16.4948 7.80022L13.8413 10.3848C13.7586 10.4653 13.7172 10.5056 13.6906 10.5535C13.6669 10.596 13.6518 10.6426 13.6459 10.6908C13.6393 10.7453 13.6491 10.8022 13.6686 10.916L14.2947 14.5665C14.3607 14.9516 14.3938 15.1441 14.3317 15.2583C14.2777 15.3577 14.1817 15.4274 14.0705 15.448C13.9427 15.4717 13.7698 15.3808 13.4241 15.199L10.1445 13.4743C10.0423 13.4206 9.99124 13.3937 9.93742 13.3832C9.88976 13.3738 9.84074 13.3738 9.79308 13.3832C9.73925 13.3937 9.68816 13.4206 9.58598 13.4743L6.30643 15.199C5.96067 15.3808 5.78779 15.4717 5.65996 15.448C5.54875 15.4274 5.45278 15.3577 5.39879 15.2583C5.33673 15.1441 5.36975 14.9516 5.43579 14.5665L6.0619 10.916C6.08142 10.8022 6.09118 10.7453 6.08457 10.6908C6.07873 10.6426 6.06357 10.596 6.03994 10.5535C6.01325 10.5056 5.97189 10.4653 5.88917 10.3848L3.23565 7.80022C2.95598 7.52782 2.81615 7.39162 2.79913 7.26277C2.78432 7.15066 2.8209 7.03786 2.89867 6.95577C2.98806 6.86141 3.18121 6.83318 3.56752 6.77672L7.23597 6.24052C7.35005 6.22384 7.40709 6.21551 7.45677 6.1924C7.50076 6.17195 7.54036 6.14316 7.57337 6.10762C7.61066 6.06748 7.63618 6.01579 7.68721 5.9124L9.32722 2.58993Z" fill="#F6BF06"/>
</svg>
