<svg width="22" height="23" viewBox="0 0 22 23" fill="none" xmlns="http://www.w3.org/2000/svg">
<path d="M19 11.7725C19 16.1907 15.4183 19.7725 11 19.7725M19 11.7725C19 7.35418 15.4183 3.77246 11 3.77246M19 11.7725H21M11 19.7725C6.58172 19.7725 3 16.1907 3 11.7725M11 19.7725V21.7725M3 11.7725C3 7.35418 6.58172 3.77246 11 3.77246M3 11.7725H1M11 3.77246V1.77246M14 11.7725C14 13.4293 12.6569 14.7725 11 14.7725C9.34315 14.7725 8 13.4293 8 11.7725C8 10.1156 9.34315 8.77246 11 8.77246C12.6569 8.77246 14 10.1156 14 11.7725Z" stroke="#475467" stroke-width="2" stroke-linecap="round" stroke-linejoin="round"/>
</svg>
