<svg width="25" height="24" viewBox="0 0 25 24" fill="none" xmlns="http://www.w3.org/2000/svg">
<path d="M12.8652 9C11.973 8.98562 11.1015 9.27003 10.3895 9.808C9.67746 10.346 9.16578 11.1066 8.93585 11.9688C8.70591 12.8311 8.77092 13.7455 9.12053 14.5665C9.47014 15.3876 10.0843 16.0682 10.8652 16.5M12.8652 3V5M7.46523 18.4L6.06523 19.8M4.86523 13H2.86523M7.46523 7.6L6.06523 6.2M20.8652 14.5351V4C20.8652 2.89543 19.9698 2 18.8652 2C17.7607 2 16.8652 2.89543 16.8652 4V14.5351C15.6696 15.2267 14.8652 16.5194 14.8652 18C14.8652 20.2091 16.6561 22 18.8652 22C21.0744 22 22.8652 20.2091 22.8652 18C22.8652 16.5194 22.0608 15.2267 20.8652 14.5351Z" stroke="#475467" stroke-width="2" stroke-linecap="round" stroke-linejoin="round"/>
</svg>
