<svg width="19" height="18" viewBox="0 0 19 18" fill="none" xmlns="http://www.w3.org/2000/svg">
<path d="M9.49773 6.54963C9.84898 6.54963 10.1384 6.36713 10.1777 6.13088L10.5252 2.20651C10.5252 1.81838 10.0709 1.49963 9.49898 1.49963C8.92836 1.49963 8.47461 1.81838 8.47461 2.20651L8.82148 6.13088C8.85961 6.36713 9.14898 6.54963 9.49961 6.54963H9.49773Z" fill="#475467"/>
<path d="M7.37753 7.77528C7.55378 7.47153 7.54003 7.12903 7.3544 6.97778L4.12877 4.71528C3.79377 4.52153 3.29065 4.75528 3.00502 5.24966C2.71877 5.74403 2.7694 6.29653 3.1044 6.49028L6.67565 8.15341C6.8994 8.23653 7.20315 8.07716 7.37878 7.77341L7.37753 7.77528Z" fill="#475467"/>
<path d="M11.6209 7.77338C11.7965 8.07713 12.0996 8.2365 12.3234 8.15338L15.8953 6.49025C16.2315 6.2965 16.2796 5.744 15.9953 5.24963C15.7084 4.75463 15.2046 4.52088 14.8703 4.71525L11.6446 6.97775C11.4603 7.12963 11.4465 7.4715 11.6221 7.77525L11.6209 7.77338Z" fill="#475467"/>
<path d="M9.49773 11.4515C9.84898 11.4515 10.1384 11.6334 10.1777 11.869L10.5252 15.7934C10.5252 16.1822 10.0709 16.5003 9.49898 16.5003C8.92836 16.5003 8.47461 16.1822 8.47461 15.7934L8.82148 11.869C8.85961 11.6328 9.14961 11.4515 9.49961 11.4515H9.49773Z" fill="#475467"/>
<path d="M11.6209 10.2259C11.7965 9.9215 12.0996 9.76337 12.3234 9.84775L15.8953 11.509C16.2315 11.7034 16.2796 12.2559 15.9953 12.7509C15.7084 13.244 15.2046 13.4784 14.8703 13.2852L11.6446 11.0246C11.4603 10.8709 11.4465 10.5296 11.6221 10.2259H11.6209Z" fill="#475467"/>
<path d="M7.37753 10.2253C7.55378 10.529 7.54003 10.8709 7.3544 11.024L4.12877 13.2846C3.79377 13.4784 3.29065 13.244 3.00502 12.7503C2.71877 12.2553 2.7694 11.7028 3.1044 11.5084L6.67565 9.84714C6.8994 9.76276 7.20315 9.92089 7.37878 10.2253H7.37753Z" fill="#475467"/>
</svg>
